<svg xmlns="http://www.w3.org/2000/svg" xmlns:xlink="http://www.w3.org/1999/xlink" width="1243.429" height="549" viewBox="0 0 1243.429 549">
  <defs>
    <clipPath id="clip-path">
      <rect id="Rectángulo_405375" data-name="Rectángulo 405375" width="1243.429" height="549" fill="none"/>
    </clipPath>
    <clipPath id="clip-path-2">
      <rect id="Rectángulo_405373" data-name="Rectángulo 405373" width="249.897" height="22.61" transform="translate(503.98 18.95)" fill="none"/>
    </clipPath>
    <clipPath id="clip-path-3">
      <rect id="Rectángulo_405374" data-name="Rectángulo 405374" width="150.098" height="22.61" transform="translate(553.879 45.95)" fill="none"/>
    </clipPath>
    <clipPath id="clip-path-4">
      <rect id="Rectángulo_405378" data-name="Rectángulo 405378" width="99.551" height="17.96" transform="translate(70.699 199.86)" fill="none"/>
    </clipPath>
    <clipPath id="clip-path-6">
      <rect id="Rectángulo_405384" data-name="Rectángulo 405384" width="135.263" height="17.96" transform="translate(52.843 300.86)" fill="none"/>
    </clipPath>
    <clipPath id="clip-path-8">
      <rect id="Rectángulo_405390" data-name="Rectángulo 405390" width="176.414" height="37.161" transform="translate(32.267 391.86)" fill="none"/>
    </clipPath>
    <clipPath id="clip-path-11">
      <rect id="Rectángulo_405397" data-name="Rectángulo 405397" width="143.662" height="56.36" transform="translate(48.644 484.86)" fill="none"/>
    </clipPath>
    <clipPath id="clip-path-13">
      <rect id="Rectángulo_405401" data-name="Rectángulo 405401" width="93.151" height="17.96" transform="translate(328.399 199.86)" fill="none"/>
    </clipPath>
    <clipPath id="clip-path-15">
      <rect id="Rectángulo_405405" data-name="Rectángulo 405405" width="188.63" height="17.96" transform="translate(1044.16 199.86)" fill="none"/>
    </clipPath>
    <clipPath id="clip-path-17">
      <rect id="Rectángulo_405409" data-name="Rectángulo 405409" width="98.56" height="17.96" transform="translate(580.195 199.86)" fill="none"/>
    </clipPath>
    <clipPath id="clip-path-19">
      <rect id="Rectángulo_405413" data-name="Rectángulo 405413" width="167.069" height="17.96" transform="translate(800.44 199.86)" fill="none"/>
    </clipPath>
    <clipPath id="clip-path-22">
      <rect id="Rectángulo_405420" data-name="Rectángulo 405420" width="158.302" height="37.161" transform="translate(295.324 288.86)" fill="none"/>
    </clipPath>
    <clipPath id="clip-path-24">
      <rect id="Rectángulo_405426" data-name="Rectángulo 405426" width="140.894" height="56.361" transform="translate(304.027 382.86)" fill="none"/>
    </clipPath>
    <clipPath id="clip-path-27">
      <rect id="Rectángulo_405433" data-name="Rectángulo 405433" width="148.797" height="37.16" transform="translate(300.076 493.86)" fill="none"/>
    </clipPath>
    <clipPath id="clip-path-30">
      <rect id="Rectángulo_405440" data-name="Rectángulo 405440" width="97.51" height="37.161" transform="translate(1089.72 288.86)" fill="none"/>
    </clipPath>
    <clipPath id="clip-path-33">
      <rect id="Rectángulo_405447" data-name="Rectángulo 405447" width="100.55" height="37.161" transform="translate(1088.2 391.86)" fill="none"/>
    </clipPath>
    <clipPath id="clip-path-36">
      <rect id="Rectángulo_405454" data-name="Rectángulo 405454" width="178.47" height="37.16" transform="translate(1049.24 493.86)" fill="none"/>
    </clipPath>
    <clipPath id="clip-path-38">
      <rect id="Rectángulo_405460" data-name="Rectángulo 405460" width="161.262" height="37.161" transform="translate(549.844 288.86)" fill="none"/>
    </clipPath>
    <clipPath id="clip-path-40">
      <rect id="Rectángulo_405466" data-name="Rectángulo 405466" width="172.925" height="37.161" transform="translate(544.012 391.86)" fill="none"/>
    </clipPath>
    <clipPath id="clip-path-42">
      <rect id="Rectángulo_405472" data-name="Rectángulo 405472" width="116.862" height="17.96" transform="translate(826.044 299.86)" fill="none"/>
    </clipPath>
    <clipPath id="clip-path-44">
      <rect id="Rectángulo_405478" data-name="Rectángulo 405478" width="163.757" height="17.96" transform="translate(802.596 399.86)" fill="none"/>
    </clipPath>
  </defs>
  <g id="Grupo_1145489" data-name="Grupo 1145489" transform="translate(-178 -647)">
    <g id="Grupo_1144245" data-name="Grupo 1144245" transform="translate(178 647)">
      <rect id="Rectángulo_405371" data-name="Rectángulo 405371" width="368" height="84" transform="translate(444.928)" fill="#d0e3ee"/>
      <g id="Grupo_1144142" data-name="Grupo 1144142">
        <g id="Grupo_1144141" data-name="Grupo 1144141" clip-path="url(#clip-path)">
          <rect id="Rectángulo_405372" data-name="Rectángulo 405372" width="367" height="83" transform="translate(445.429 0.5)" fill="none" stroke="#177aae" stroke-width="1"/>
          <g id="Grupo_1144137" data-name="Grupo 1144137" style="isolation: isolate">
            <g id="Grupo_1144136" data-name="Grupo 1144136">
              <g id="Grupo_1144135" data-name="Grupo 1144135" clip-path="url(#clip-path-2)">
                <path id="Trazado_980762" data-name="Trazado 980762" d="M1.56,0V-14.1h9.3v2.02H4.14v4H10.4v2.02H4.14V0ZM15.94.2A3.557,3.557,0,0,1,13.16-.82a4.543,4.543,0,0,1-.92-3.12V-10.1h2.5v6.14a2.475,2.475,0,0,0,.46,1.65,1.755,1.755,0,0,0,1.4.53,2.256,2.256,0,0,0,1.73-.72A2.677,2.677,0,0,0,19-4.4v-5.7h2.5V0H19.06V-2.06h.28A3.547,3.547,0,0,1,18.01-.39,3.659,3.659,0,0,1,15.94.2ZM24.22,0V-7.58q0-.62-.04-1.26t-.12-1.26h2.42l.2,2h-.24a3.577,3.577,0,0,1,1.42-1.63,4.121,4.121,0,0,1,2.18-.57,3.422,3.422,0,0,1,2.68,1,4.565,4.565,0,0,1,.9,3.12V0h-2.5V-6.06a2.618,2.618,0,0,0-.47-1.75,1.787,1.787,0,0,0-1.41-.53,2.41,2.41,0,0,0-1.84.72,2.682,2.682,0,0,0-.68,1.92V0Zm16.7.2a5.6,5.6,0,0,1-2.73-.64,4.433,4.433,0,0,1-1.81-1.83,5.894,5.894,0,0,1-.64-2.83,5.646,5.646,0,0,1,.65-2.8A4.432,4.432,0,0,1,38.2-9.68a5.688,5.688,0,0,1,2.72-.62,6.247,6.247,0,0,1,1.95.31,3.953,3.953,0,0,1,1.55.89l-.76,1.74a3.641,3.641,0,0,0-1.21-.75,3.733,3.733,0,0,0-1.31-.25,2.657,2.657,0,0,0-2.09.84,3.551,3.551,0,0,0-.75,2.44,3.63,3.63,0,0,0,.75,2.46,2.626,2.626,0,0,0,2.09.86A3.819,3.819,0,0,0,42.43-2a3.72,3.72,0,0,0,1.23-.74l.76,1.72a4.243,4.243,0,0,1-1.57.9A6.009,6.009,0,0,1,40.92.2ZM46.36,0V-10.1h2.5V0Zm-.14-12v-2.44H49V-12ZM56.14.2a5.428,5.428,0,0,1-2.7-.64,4.435,4.435,0,0,1-1.77-1.82,5.865,5.865,0,0,1-.63-2.8,5.806,5.806,0,0,1,.63-2.79,4.451,4.451,0,0,1,1.77-1.81,5.428,5.428,0,0,1,2.7-.64,5.485,5.485,0,0,1,2.71.64,4.433,4.433,0,0,1,1.78,1.81,5.806,5.806,0,0,1,.63,2.79,5.865,5.865,0,0,1-.63,2.8A4.418,4.418,0,0,1,58.85-.44,5.485,5.485,0,0,1,56.14.2Zm0-1.92a2.333,2.333,0,0,0,1.88-.83,3.822,3.822,0,0,0,.7-2.51,3.78,3.78,0,0,0-.7-2.5,2.346,2.346,0,0,0-1.88-.82,2.346,2.346,0,0,0-1.88.82,3.78,3.78,0,0,0-.7,2.5,3.822,3.822,0,0,0,.7,2.51A2.333,2.333,0,0,0,56.14-1.72ZM63.42,0V-7.58q0-.62-.04-1.26t-.12-1.26h2.42l.2,2h-.24a3.577,3.577,0,0,1,1.42-1.63,4.121,4.121,0,0,1,2.18-.57,3.422,3.422,0,0,1,2.68,1,4.565,4.565,0,0,1,.9,3.12V0h-2.5V-6.06a2.618,2.618,0,0,0-.47-1.75,1.787,1.787,0,0,0-1.41-.53,2.41,2.41,0,0,0-1.84.72,2.682,2.682,0,0,0-.68,1.92V0ZM80.36.2a5.468,5.468,0,0,1-3.98-1.4,5.107,5.107,0,0,1-1.44-3.84,5.852,5.852,0,0,1,.62-2.76,4.561,4.561,0,0,1,1.73-1.84,4.972,4.972,0,0,1,2.59-.66,4.48,4.48,0,0,1,2.44.62,3.93,3.93,0,0,1,1.49,1.74,6.27,6.27,0,0,1,.51,2.62v.66H76.96V-5.98h5.58l-.34.28a3.367,3.367,0,0,0-.59-2.14,2.058,2.058,0,0,0-1.71-.74,2.258,2.258,0,0,0-1.91.88,3.982,3.982,0,0,0-.67,2.46v.26a3.33,3.33,0,0,0,.81,2.45,3.1,3.1,0,0,0,2.29.81,5.464,5.464,0,0,0,1.61-.23,4.54,4.54,0,0,0,1.43-.75l.74,1.68a5.271,5.271,0,0,1-1.72.9A6.915,6.915,0,0,1,80.36.2Zm9.68,0a8.715,8.715,0,0,1-2.39-.31,5.492,5.492,0,0,1-1.83-.87l.7-1.68a6.1,6.1,0,0,0,1.68.8,6.356,6.356,0,0,0,1.86.28,2.633,2.633,0,0,0,1.49-.34,1.064,1.064,0,0,0,.49-.92.919.919,0,0,0-.31-.73,2.187,2.187,0,0,0-.99-.41l-2-.38a3.812,3.812,0,0,1-1.95-.96,2.427,2.427,0,0,1-.67-1.78,2.8,2.8,0,0,1,.51-1.66,3.371,3.371,0,0,1,1.46-1.13,5.594,5.594,0,0,1,2.23-.41,7.239,7.239,0,0,1,2.11.3,4.423,4.423,0,0,1,1.67.9l-.72,1.62a4.73,4.73,0,0,0-1.42-.78,4.707,4.707,0,0,0-1.56-.28,2.5,2.5,0,0,0-1.52.37,1.148,1.148,0,0,0-.48.95.99.99,0,0,0,.29.73,1.842,1.842,0,0,0,.91.43l2,.38a4.021,4.021,0,0,1,2.03.91A2.315,2.315,0,0,1,94.32-3a2.785,2.785,0,0,1-.54,1.72,3.372,3.372,0,0,1-1.5,1.1A6.063,6.063,0,0,1,90.04.2Zm11.7,4.34-.58-1.98a9.524,9.524,0,0,0,1.58-.46,3.156,3.156,0,0,0,1.06-.68,3.363,3.363,0,0,0,.7-1.08L105-.84l-.06.98-4.4-10.24h2.66l3.16,7.88h-.58l3.18-7.88h2.52L106.88.56a8.39,8.39,0,0,1-1,1.79,5.193,5.193,0,0,1-1.16,1.14,5.17,5.17,0,0,1-1.36.67A10.708,10.708,0,0,1,101.74,4.54ZM118.28,0V-14.72h2.5v6.64h-.28a3.418,3.418,0,0,1,1.42-1.65,4.226,4.226,0,0,1,2.2-.57,3.366,3.366,0,0,1,2.68,1.01,4.573,4.573,0,0,1,.88,3.07V0h-2.5V-6.1a2.626,2.626,0,0,0-.45-1.71,1.776,1.776,0,0,0-1.43-.53,2.435,2.435,0,0,0-1.83.71,2.6,2.6,0,0,0-.69,1.89V0Zm16.94.2a5.468,5.468,0,0,1-3.98-1.4,5.107,5.107,0,0,1-1.44-3.84,5.852,5.852,0,0,1,.62-2.76,4.561,4.561,0,0,1,1.73-1.84,4.972,4.972,0,0,1,2.59-.66,4.48,4.48,0,0,1,2.44.62,3.93,3.93,0,0,1,1.49,1.74,6.27,6.27,0,0,1,.51,2.62v.66h-7.36V-5.98h5.58l-.34.28a3.367,3.367,0,0,0-.59-2.14,2.058,2.058,0,0,0-1.71-.74,2.258,2.258,0,0,0-1.91.88,3.982,3.982,0,0,0-.67,2.46v.26a3.33,3.33,0,0,0,.81,2.45,3.1,3.1,0,0,0,2.29.81,5.464,5.464,0,0,0,1.61-.23,4.54,4.54,0,0,0,1.43-.75l.74,1.68a5.271,5.271,0,0,1-1.72.9A6.915,6.915,0,0,1,135.22.2Zm6.06-.2V-7.52q0-.64-.03-1.3t-.11-1.28h2.42l.28,2.76h-.4A4.275,4.275,0,0,1,144.11-9a2.938,2.938,0,0,1,1.15-.98,3.432,3.432,0,0,1,1.48-.32,4.475,4.475,0,0,1,.58.03,2.126,2.126,0,0,1,.44.11l-.02,2.2a2.789,2.789,0,0,0-.65-.2,4.688,4.688,0,0,0-.67-.04,2.736,2.736,0,0,0-1.45.36,2.214,2.214,0,0,0-.88,1,3.5,3.5,0,0,0-.29,1.46V0Zm7.86,0V-7.52q0-.64-.03-1.3T149-10.1h2.42l.28,2.76h-.4A4.275,4.275,0,0,1,151.97-9a2.938,2.938,0,0,1,1.15-.98,3.432,3.432,0,0,1,1.48-.32,4.475,4.475,0,0,1,.58.03,2.126,2.126,0,0,1,.44.11l-.02,2.2a2.789,2.789,0,0,0-.65-.2,4.688,4.688,0,0,0-.67-.04,2.736,2.736,0,0,0-1.45.36,2.214,2.214,0,0,0-.88,1,3.5,3.5,0,0,0-.29,1.46V0Zm11.6.2a4.26,4.26,0,0,1-2.32-.63,4.207,4.207,0,0,1-1.56-1.81,6.527,6.527,0,0,1-.56-2.82,6.46,6.46,0,0,1,.56-2.81,4.218,4.218,0,0,1,1.56-1.8,4.26,4.26,0,0,1,2.32-.63,4.038,4.038,0,0,1,2.25.63,3,3,0,0,1,1.29,1.69h-.22l.22-2.12h2.4q-.06.62-.11,1.26t-.05,1.26V0h-2.48l-.02-2.08h.24a2.951,2.951,0,0,1-1.3,1.66A4.064,4.064,0,0,1,160.74.2Zm.7-1.92a2.392,2.392,0,0,0,1.9-.83,3.747,3.747,0,0,0,.72-2.51,3.706,3.706,0,0,0-.72-2.5,2.4,2.4,0,0,0-1.9-.82,2.4,2.4,0,0,0-1.9.82,3.706,3.706,0,0,0-.72,2.5,3.784,3.784,0,0,0,.71,2.51A2.385,2.385,0,0,0,161.44-1.72ZM169.24,0V-7.58q0-.62-.04-1.26t-.12-1.26h2.42l.2,2h-.24a3.436,3.436,0,0,1,1.29-1.62,3.645,3.645,0,0,1,2.07-.58,3.314,3.314,0,0,1,1.99.57,3.057,3.057,0,0,1,1.11,1.77h-.32a3.523,3.523,0,0,1,1.38-1.71,3.919,3.919,0,0,1,2.2-.63,3.13,3.13,0,0,1,2.54,1,4.794,4.794,0,0,1,.84,3.12V0h-2.5V-6.08a2.914,2.914,0,0,0-.4-1.73,1.5,1.5,0,0,0-1.28-.53,2.009,2.009,0,0,0-1.64.73,3.009,3.009,0,0,0-.6,1.97V0h-2.5V-6.08a2.914,2.914,0,0,0-.4-1.73,1.5,1.5,0,0,0-1.28-.53,1.981,1.981,0,0,0-1.63.73,3.044,3.044,0,0,0-.59,1.97V0Zm17.98,0V-10.1h2.5V0Zm-.14-12v-2.44h2.78V-12ZM197.32.2a5.468,5.468,0,0,1-3.98-1.4,5.107,5.107,0,0,1-1.44-3.84,5.852,5.852,0,0,1,.62-2.76,4.561,4.561,0,0,1,1.73-1.84,4.972,4.972,0,0,1,2.59-.66,4.48,4.48,0,0,1,2.44.62,3.93,3.93,0,0,1,1.49,1.74,6.27,6.27,0,0,1,.51,2.62v.66h-7.36V-5.98h5.58l-.34.28a3.367,3.367,0,0,0-.59-2.14,2.058,2.058,0,0,0-1.71-.74,2.258,2.258,0,0,0-1.91.88,3.982,3.982,0,0,0-.67,2.46v.26a3.33,3.33,0,0,0,.81,2.45,3.1,3.1,0,0,0,2.29.81,5.464,5.464,0,0,0,1.61-.23,4.54,4.54,0,0,0,1.43-.75l.74,1.68a5.271,5.271,0,0,1-1.72.9A6.915,6.915,0,0,1,197.32.2ZM203.4,0V-7.58q0-.62-.04-1.26t-.12-1.26h2.42l.2,2h-.24a3.577,3.577,0,0,1,1.42-1.63,4.121,4.121,0,0,1,2.18-.57,3.422,3.422,0,0,1,2.68,1,4.565,4.565,0,0,1,.9,3.12V0h-2.5V-6.06a2.618,2.618,0,0,0-.47-1.75,1.787,1.787,0,0,0-1.41-.53,2.41,2.41,0,0,0-1.84.72,2.682,2.682,0,0,0-.68,1.92V0Zm16.38.2a3.642,3.642,0,0,1-2.72-.94,3.882,3.882,0,0,1-.92-2.82V-8.22H214.2V-10.1h1.94v-2.58l2.5-.64v3.22h2.7v1.88h-2.7v4.5a2.1,2.1,0,0,0,.4,1.46,1.447,1.447,0,0,0,1.1.42,3.039,3.039,0,0,0,.65-.06,3.726,3.726,0,0,0,.53-.16V-.08a3.523,3.523,0,0,1-.75.21A4.694,4.694,0,0,1,219.78.2Zm7.16,0a4.26,4.26,0,0,1-2.32-.63,4.207,4.207,0,0,1-1.56-1.81,6.527,6.527,0,0,1-.56-2.82,6.46,6.46,0,0,1,.56-2.81,4.218,4.218,0,0,1,1.56-1.8,4.26,4.26,0,0,1,2.32-.63,4.038,4.038,0,0,1,2.25.63,3,3,0,0,1,1.29,1.69h-.22l.22-2.12h2.4q-.06.62-.11,1.26t-.05,1.26V0h-2.48l-.02-2.08h.24a2.951,2.951,0,0,1-1.3,1.66A4.064,4.064,0,0,1,226.94.2Zm.7-1.92a2.392,2.392,0,0,0,1.9-.83,3.747,3.747,0,0,0,.72-2.51,3.706,3.706,0,0,0-.72-2.5,2.4,2.4,0,0,0-1.9-.82,2.4,2.4,0,0,0-1.9.82,3.706,3.706,0,0,0-.72,2.5,3.784,3.784,0,0,0,.71,2.51A2.385,2.385,0,0,0,227.64-1.72ZM239.04.2a8.715,8.715,0,0,1-2.39-.31,5.492,5.492,0,0,1-1.83-.87l.7-1.68a6.1,6.1,0,0,0,1.68.8,6.356,6.356,0,0,0,1.86.28,2.633,2.633,0,0,0,1.49-.34,1.064,1.064,0,0,0,.49-.92.919.919,0,0,0-.31-.73,2.187,2.187,0,0,0-.99-.41l-2-.38a3.812,3.812,0,0,1-1.95-.96,2.427,2.427,0,0,1-.67-1.78,2.8,2.8,0,0,1,.51-1.66,3.371,3.371,0,0,1,1.46-1.13,5.594,5.594,0,0,1,2.23-.41,7.239,7.239,0,0,1,2.11.3,4.423,4.423,0,0,1,1.67.9l-.72,1.62a4.729,4.729,0,0,0-1.42-.78,4.707,4.707,0,0,0-1.56-.28,2.5,2.5,0,0,0-1.52.37,1.148,1.148,0,0,0-.48.95.99.99,0,0,0,.29.73,1.842,1.842,0,0,0,.91.43l2,.38a4.021,4.021,0,0,1,2.03.91A2.315,2.315,0,0,1,243.32-3a2.785,2.785,0,0,1-.54,1.72,3.372,3.372,0,0,1-1.5,1.1A6.063,6.063,0,0,1,239.04.2Z" transform="translate(503.98 36)" fill="#212429"/>
              </g>
            </g>
          </g>
          <g id="Grupo_1144140" data-name="Grupo 1144140" style="isolation: isolate">
            <g id="Grupo_1144139" data-name="Grupo 1144139">
              <g id="Grupo_1144138" data-name="Grupo 1144138" clip-path="url(#clip-path-3)">
                <text id="básicas_en_CAD" data-name="básicas en CAD" transform="translate(553.879 63)" fill="#212429" font-size="20" font-family="Mulish-Bold, Mulish" font-weight="700"><tspan x="0" y="0">bási</tspan><tspan y="0" letter-spacing="-0.002em">c</tspan><tspan y="0">as en </tspan><tspan y="0" letter-spacing="-0.014em">C</tspan><tspan y="0">AD</tspan></text>
              </g>
            </g>
          </g>
        </g>
      </g>
      <line id="Línea_829" data-name="Línea 829" y2="43" transform="translate(629.429 83.5)" fill="none" stroke="#177aae" stroke-width="1"/>
      <line id="Línea_830" data-name="Línea 830" x1="1017" transform="translate(120.429 126.5)" fill="none" stroke="#177aae" stroke-width="1"/>
      <rect id="Rectángulo_405376" data-name="Rectángulo 405376" width="210" height="76" transform="translate(14.929 169.5)" fill="#feddd9"/>
      <rect id="Rectángulo_405377" data-name="Rectángulo 405377" width="209" height="75" transform="translate(15.429 170)" fill="none" stroke="#8a3127" stroke-width="1"/>
      <g id="Grupo_1144147" data-name="Grupo 1144147">
        <g id="Grupo_1144145" data-name="Grupo 1144145" style="isolation: isolate">
          <g id="Grupo_1144144" data-name="Grupo 1144144">
            <g id="Grupo_1144143" data-name="Grupo 1144143" clip-path="url(#clip-path-4)">
              <text id="Dibujo_básico" data-name="Dibujo básico" transform="translate(70.699 213.5)" fill="#212429" font-size="16" font-family="Mulish-Regular, Mulish"><tspan x="0" y="0">Dibujo bási</tspan><tspan y="0" letter-spacing="-0.01em">c</tspan><tspan y="0">o</tspan></text>
            </g>
          </g>
        </g>
        <rect id="Rectángulo_405379" data-name="Rectángulo 405379" width="1243.429" height="549" fill="none"/>
      </g>
      <line id="Línea_831" data-name="Línea 831" y2="43.5" transform="translate(120.275 126)" fill="none" stroke="#177aae" stroke-width="1"/>
      <rect id="Rectángulo_405380" data-name="Rectángulo 405380" width="210" height="76" transform="translate(14.929 270.5)" fill="#fcf4e9"/>
      <rect id="Rectángulo_405381" data-name="Rectángulo 405381" width="210" height="76" transform="translate(14.929 270.5)" fill="none" stroke="#8a3127" stroke-miterlimit="10" stroke-width="1"/>
      <rect id="Rectángulo_405382" data-name="Rectángulo 405382" width="209" height="75" transform="translate(15.429 271)" fill="#fcf4e9"/>
      <rect id="Rectángulo_405383" data-name="Rectángulo 405383" width="209" height="75" transform="translate(15.429 271)" fill="none" stroke="#8a3127" stroke-miterlimit="10" stroke-width="1"/>
      <g id="Grupo_1144152" data-name="Grupo 1144152">
        <g id="Grupo_1144151" data-name="Grupo 1144151" clip-path="url(#clip-path)">
          <g id="Grupo_1144150" data-name="Grupo 1144150" style="isolation: isolate">
            <g id="Grupo_1144149" data-name="Grupo 1144149">
              <g id="Grupo_1144148" data-name="Grupo 1144148" clip-path="url(#clip-path-6)">
                <text id="Líneas._Contornos." data-name="Líneas. Contornos." transform="translate(52.843 314.5)" fill="#212429" font-size="16" font-family="Mulish-Regular, Mulish"><tspan x="0" y="0">Línea</tspan><tspan y="0" letter-spacing="-0.004em">s</tspan><tspan y="0">. </tspan><tspan y="0" letter-spacing="-0.035em">C</tspan><tspan y="0">on</tspan><tspan y="0" letter-spacing="-0.004em">t</tspan><tspan y="0">orno</tspan><tspan y="0" letter-spacing="-0.005em">s</tspan><tspan y="0">.</tspan></text>
              </g>
            </g>
          </g>
        </g>
      </g>
      <rect id="Rectángulo_405386" data-name="Rectángulo 405386" width="210" height="76" transform="translate(14.929 371.5)" fill="#fcf4e9"/>
      <rect id="Rectángulo_405387" data-name="Rectángulo 405387" width="210" height="76" transform="translate(14.929 371.5)" fill="none" stroke="#8a3127" stroke-miterlimit="10" stroke-width="1"/>
      <rect id="Rectángulo_405388" data-name="Rectángulo 405388" width="209" height="75" transform="translate(15.429 372)" fill="#fcf4e9"/>
      <rect id="Rectángulo_405389" data-name="Rectángulo 405389" width="209" height="75" transform="translate(15.429 372)" fill="none" stroke="#8a3127" stroke-miterlimit="10" stroke-width="1"/>
      <g id="Grupo_1144157" data-name="Grupo 1144157">
        <g id="Grupo_1144156" data-name="Grupo 1144156" clip-path="url(#clip-path)">
          <g id="Grupo_1144155" data-name="Grupo 1144155" style="isolation: isolate">
            <g id="Grupo_1144154" data-name="Grupo 1144154">
              <g id="Grupo_1144153" data-name="Grupo 1144153" clip-path="url(#clip-path-8)">
                <text id="Formas_círculos_arcos_." data-name="Formas (círculos, arcos)." transform="translate(32.268 405.5)" fill="#212429" font-size="16" font-family="Mulish-Regular, Mulish"><tspan x="0" y="0" letter-spacing="-0.019em">F</tspan><tspan y="0">ormas </tspan><tspan y="0" letter-spacing="-0.01em">(</tspan><tspan y="0">cí</tspan><tspan y="0" letter-spacing="-0.005em">r</tspan><tspan y="0">culo</tspan><tspan y="0" letter-spacing="-0.004em">s</tspan><tspan y="0">, a</tspan><tspan y="0" letter-spacing="-0.005em">r</tspan><tspan y="0" letter-spacing="-0.01em">c</tspan><tspan y="0">os).</tspan></text>
                <text id="Áreas_de_diseño." data-name="Áreas de diseño." transform="translate(59.372 424.7)" fill="#212429" font-size="16" font-family="Mulish-Regular, Mulish"><tspan x="0" y="0">Á</tspan><tspan y="0" letter-spacing="-0.005em">r</tspan><tspan y="0">eas de diseñ</tspan><tspan y="0" letter-spacing="-0.022em">o</tspan><tspan y="0">.</tspan></text>
              </g>
            </g>
          </g>
        </g>
      </g>
      <rect id="Rectángulo_405392" data-name="Rectángulo 405392" width="210.001" height="76" transform="translate(14.928 472.5)" fill="#fcf4e9"/>
      <g id="Grupo_1144159" data-name="Grupo 1144159">
        <g id="Grupo_1144158" data-name="Grupo 1144158" clip-path="url(#clip-path)">
          <rect id="Rectángulo_405393" data-name="Rectángulo 405393" width="210" height="76" transform="translate(14.929 472.5)" fill="none" stroke="#8a3127" stroke-miterlimit="10" stroke-width="1"/>
        </g>
      </g>
      <rect id="Rectángulo_405395" data-name="Rectángulo 405395" width="209" height="75" transform="translate(15.429 473)" fill="#fcf4e9"/>
      <g id="Grupo_1144164" data-name="Grupo 1144164">
        <g id="Grupo_1144163" data-name="Grupo 1144163" clip-path="url(#clip-path)">
          <rect id="Rectángulo_405396" data-name="Rectángulo 405396" width="209" height="75" transform="translate(15.429 473)" fill="none" stroke="#8a3127" stroke-miterlimit="10" stroke-width="1"/>
          <g id="Grupo_1144162" data-name="Grupo 1144162" style="isolation: isolate">
            <g id="Grupo_1144161" data-name="Grupo 1144161">
              <g id="Grupo_1144160" data-name="Grupo 1144160" clip-path="url(#clip-path-11)">
                <text id="Polilíneas_y_Splines." data-name="Polilíneas y Splines." transform="translate(48.644 498.5)" fill="#212429" font-size="16" font-family="Mulish-Regular, Mulish"><tspan x="0" y="0" letter-spacing="-0.021em">P</tspan><tspan y="0">olilíneas y Spline</tspan><tspan y="0" letter-spacing="-0.005em">s</tspan><tspan y="0">.</tspan></text>
                <text id="Formas_complejas" data-name="Formas complejas" transform="translate(53.572 517.7)" fill="#212429" font-size="16" font-family="Mulish-Regular, Mulish"><tspan x="0" y="0" letter-spacing="-0.019em">F</tspan><tspan y="0">ormas </tspan><tspan y="0" letter-spacing="-0.01em">c</tspan><tspan y="0">omplejas</tspan></text>
                <text id="y_detalles." data-name="y detalles." transform="translate(83.46 536.9)" fill="#212429" font-size="16" font-family="Mulish-Regular, Mulish"><tspan x="0" y="0">y detalle</tspan><tspan y="0" letter-spacing="-0.004em">s</tspan><tspan y="0">.</tspan></text>
              </g>
            </g>
          </g>
        </g>
      </g>
      <rect id="Rectángulo_405399" data-name="Rectángulo 405399" width="210" height="76" transform="translate(269.429 169.5)" fill="#feddd9"/>
      <rect id="Rectángulo_405400" data-name="Rectángulo 405400" width="209" height="75" transform="translate(269.929 170)" fill="none" stroke="#8a3127" stroke-width="1"/>
      <g id="Grupo_1144169" data-name="Grupo 1144169">
        <g id="Grupo_1144168" data-name="Grupo 1144168" clip-path="url(#clip-path)">
          <g id="Grupo_1144167" data-name="Grupo 1144167" style="isolation: isolate">
            <g id="Grupo_1144166" data-name="Grupo 1144166">
              <g id="Grupo_1144165" data-name="Grupo 1144165" clip-path="url(#clip-path-13)">
                <text id="Modi_cación" data-name="Modiﬁcación" transform="translate(328.399 213.5)" fill="#212429" font-size="16" font-family="Mulish-Regular, Mulish"><tspan x="0" y="0">Modiﬁ</tspan><tspan y="0" letter-spacing="-0.003em">c</tspan><tspan y="0">ación</tspan></text>
              </g>
            </g>
          </g>
        </g>
      </g>
      <line id="Línea_832" data-name="Línea 832" y2="43.5" transform="translate(374.775 126)" fill="none" stroke="#177aae" stroke-width="1"/>
      <rect id="Rectángulo_405403" data-name="Rectángulo 405403" width="210" height="76" transform="translate(1032.929 169.5)" fill="#feddd9"/>
      <g id="Grupo_1144174" data-name="Grupo 1144174">
        <g id="Grupo_1144173" data-name="Grupo 1144173" clip-path="url(#clip-path)">
          <rect id="Rectángulo_405404" data-name="Rectángulo 405404" width="209" height="75" transform="translate(1033.429 170)" fill="none" stroke="#8a3127" stroke-width="1"/>
          <g id="Grupo_1144172" data-name="Grupo 1144172" style="isolation: isolate">
            <g id="Grupo_1144171" data-name="Grupo 1144171">
              <g id="Grupo_1144170" data-name="Grupo 1144170" clip-path="url(#clip-path-15)">
                <text id="Visualización_exportación" data-name="Visualización/exportación" transform="translate(1044.156 213.5)" fill="#212429" font-size="16" font-family="Mulish-Regular, Mulish"><tspan x="0" y="0">Visuali</tspan><tspan y="0" letter-spacing="-0.004em">z</tspan><tspan y="0">ación</tspan><tspan y="0" letter-spacing="-0.059em">/</tspan><tspan y="0" letter-spacing="-0.003em">e</tspan><tspan y="0">xpo</tspan><tspan y="0" letter-spacing="0.026em">r</tspan><tspan y="0">tación</tspan></text>
              </g>
            </g>
          </g>
        </g>
      </g>
      <rect id="Rectángulo_405407" data-name="Rectángulo 405407" width="210" height="76" transform="translate(523.929 169.5)" fill="#feddd9"/>
      <rect id="Rectángulo_405408" data-name="Rectángulo 405408" width="209" height="75" transform="translate(524.429 170)" fill="none" stroke="#8a3127" stroke-width="1"/>
      <g id="Grupo_1144179" data-name="Grupo 1144179">
        <g id="Grupo_1144178" data-name="Grupo 1144178" clip-path="url(#clip-path)">
          <g id="Grupo_1144177" data-name="Grupo 1144177" style="isolation: isolate">
            <g id="Grupo_1144176" data-name="Grupo 1144176">
              <g id="Grupo_1144175" data-name="Grupo 1144175" clip-path="url(#clip-path-17)">
                <text id="Organización" transform="translate(580.195 213.5)" fill="#212429" font-size="16" font-family="Mulish-Regular, Mulish"><tspan x="0" y="0">O</tspan><tspan y="0" letter-spacing="-0.005em">r</tspan><tspan y="0">gani</tspan><tspan y="0" letter-spacing="-0.004em">z</tspan><tspan y="0">ación</tspan></text>
              </g>
            </g>
          </g>
        </g>
      </g>
      <line id="Línea_833" data-name="Línea 833" y2="43.5" transform="translate(629.275 126)" fill="none" stroke="#177aae" stroke-width="1"/>
      <rect id="Rectángulo_405411" data-name="Rectángulo 405411" width="210" height="76" transform="translate(778.429 169.5)" fill="#feddd9"/>
      <rect id="Rectángulo_405412" data-name="Rectángulo 405412" width="209" height="75" transform="translate(778.929 170)" fill="none" stroke="#8a3127" stroke-width="1"/>
      <g id="Grupo_1144184" data-name="Grupo 1144184">
        <g id="Grupo_1144183" data-name="Grupo 1144183" clip-path="url(#clip-path)">
          <g id="Grupo_1144182" data-name="Grupo 1144182" style="isolation: isolate">
            <g id="Grupo_1144181" data-name="Grupo 1144181">
              <g id="Grupo_1144180" data-name="Grupo 1144180" clip-path="url(#clip-path-19)">
                <text id="Dimensiones_y_escalas" data-name="Dimensiones y escalas" transform="translate(800.439 213.5)" fill="#212429" font-size="16" font-family="Mulish-Regular, Mulish"><tspan x="0" y="0">Dimensiones y es</tspan><tspan y="0" letter-spacing="-0.004em">c</tspan><tspan y="0">alas</tspan></text>
              </g>
            </g>
          </g>
        </g>
      </g>
      <line id="Línea_834" data-name="Línea 834" y2="43.5" transform="translate(883.775 126)" fill="none" stroke="#177aae" stroke-width="1"/>
      <line id="Línea_835" data-name="Línea 835" y2="43.5" transform="translate(1137.607 126)" fill="none" stroke="#177aae" stroke-width="1"/>
      <g id="Grupo_1144186" data-name="Grupo 1144186">
        <g id="Grupo_1144185" data-name="Grupo 1144185" clip-path="url(#clip-path)">
          <path id="Trazado_980683" data-name="Trazado 980683" d="M15.429,207.5H.5v303H14.929" fill="none" stroke="#177aae" stroke-width="1"/>
          <line id="Línea_836" data-name="Línea 836" x2="14.429" transform="translate(0.5 409.5)" fill="none" stroke="#177aae" stroke-width="1"/>
          <line id="Línea_837" data-name="Línea 837" x2="14.429" transform="translate(0.5 308.5)" fill="none" stroke="#177aae" stroke-width="1"/>
        </g>
      </g>
      <rect id="Rectángulo_405416" data-name="Rectángulo 405416" width="210" height="76" transform="translate(268.929 270.5)" fill="#fcf4e9"/>
      <rect id="Rectángulo_405417" data-name="Rectángulo 405417" width="210" height="76" transform="translate(268.929 270.5)" fill="none" stroke="#8a3127" stroke-miterlimit="10" stroke-width="1"/>
      <rect id="Rectángulo_405418" data-name="Rectángulo 405418" width="209" height="75" transform="translate(269.429 271)" fill="#fcf4e9"/>
      <rect id="Rectángulo_405419" data-name="Rectángulo 405419" width="209" height="75" transform="translate(269.429 271)" fill="none" stroke="#8a3127" stroke-miterlimit="10" stroke-width="1"/>
      <g id="Grupo_1144191" data-name="Grupo 1144191">
        <g id="Grupo_1145488" data-name="Grupo 1145488">
          <g id="Grupo_1144190" data-name="Grupo 1144190" clip-path="url(#clip-path)">
            <g id="Grupo_1144189" data-name="Grupo 1144189" style="isolation: isolate">
              <g id="Grupo_1144188" data-name="Grupo 1144188">
                <g id="Grupo_1144187" data-name="Grupo 1144187" clip-path="url(#clip-path-22)">
                  <text id="Mover_y_copiar_pegar." data-name="Mover y copiar/pegar." transform="translate(295.324 302.5)" fill="#212429" font-size="16" font-family="Mulish-Regular, Mulish"><tspan x="0" y="0">M</tspan><tspan y="0" letter-spacing="-0.007em">o</tspan><tspan y="0" letter-spacing="-0.006em">v</tspan><tspan y="0">er y </tspan><tspan y="0" letter-spacing="-0.009em">c</tspan><tspan y="0">opia</tspan><tspan y="0" letter-spacing="-0.011em">r</tspan><tspan y="0" letter-spacing="-0.059em">/</tspan><tspan y="0">pega</tspan><tspan y="0" letter-spacing="-0.02em">r</tspan><tspan y="0">.</tspan></text>
                  <text id="Ajuste_de_posición." data-name="Ajuste de posición." transform="translate(305.516 321.7)" fill="#212429" font-size="16" font-family="Mulish-Regular, Mulish"><tspan x="0" y="0">Aju</tspan><tspan y="0" letter-spacing="-0.004em">st</tspan><tspan y="0">e de posición.</tspan></text>
                </g>
              </g>
            </g>
          </g>
        </g>
      </g>
      <rect id="Rectángulo_405422" data-name="Rectángulo 405422" width="210" height="76" transform="translate(268.929 371.5)" fill="#fcf4e9"/>
      <rect id="Rectángulo_405423" data-name="Rectángulo 405423" width="210" height="76" transform="translate(268.929 371.5)" fill="none" stroke="#8a3127" stroke-miterlimit="10" stroke-width="1"/>
      <rect id="Rectángulo_405424" data-name="Rectángulo 405424" width="209" height="75" transform="translate(269.429 372)" fill="#fcf4e9"/>
      <rect id="Rectángulo_405425" data-name="Rectángulo 405425" width="209" height="75" transform="translate(269.429 372)" fill="none" stroke="#8a3127" stroke-miterlimit="10" stroke-width="1"/>
      <g id="Grupo_1144196" data-name="Grupo 1144196">
        <g id="Grupo_1144195" data-name="Grupo 1144195" clip-path="url(#clip-path)">
          <g id="Grupo_1144194" data-name="Grupo 1144194" style="isolation: isolate">
            <g id="Grupo_1144193" data-name="Grupo 1144193">
              <g id="Grupo_1144192" data-name="Grupo 1144192" clip-path="url(#clip-path-24)">
                <text id="Escalar_y_rotar." data-name="Escalar y rotar." transform="translate(319.563 396.5)" fill="#212429" font-size="16" font-family="Mulish-Regular, Mulish"><tspan x="0" y="0" letter-spacing="-0.007em">E</tspan><tspan y="0">s</tspan><tspan y="0" letter-spacing="-0.003em">c</tspan><tspan y="0">alar y </tspan><tspan y="0" letter-spacing="-0.005em">ro</tspan><tspan y="0">ta</tspan><tspan y="0" letter-spacing="-0.02em">r</tspan><tspan y="0">.</tspan></text>
                <text id="Cambio_de_tamaño" data-name="Cambio de tamaño" transform="translate(304.027 415.7)" fill="#212429" font-size="16" font-family="Mulish-Regular, Mulish"><tspan x="0" y="0" letter-spacing="-0.015em">C</tspan><tspan y="0">ambio de tamaño</tspan></text>
                <text id="y_orientación." data-name="y orientación." transform="translate(325.18 434.9)" fill="#212429" font-size="16" font-family="Mulish-Regular, Mulish"><tspan x="0" y="0">y orientación.</tspan></text>
              </g>
            </g>
          </g>
        </g>
      </g>
      <rect id="Rectángulo_405428" data-name="Rectángulo 405428" width="210" height="76" transform="translate(268.929 472.5)" fill="#fcf4e9"/>
      <g id="Grupo_1144198" data-name="Grupo 1144198">
        <g id="Grupo_1144197" data-name="Grupo 1144197" clip-path="url(#clip-path)">
          <rect id="Rectángulo_405429" data-name="Rectángulo 405429" width="210" height="76" transform="translate(268.929 472.5)" fill="none" stroke="#8a3127" stroke-miterlimit="10" stroke-width="1"/>
        </g>
      </g>
      <rect id="Rectángulo_405431" data-name="Rectángulo 405431" width="209" height="75" transform="translate(269.429 473)" fill="#fcf4e9"/>
      <g id="Grupo_1144203" data-name="Grupo 1144203">
        <g id="Grupo_1144202" data-name="Grupo 1144202" clip-path="url(#clip-path)">
          <rect id="Rectángulo_405432" data-name="Rectángulo 405432" width="209" height="75" transform="translate(269.429 473)" fill="none" stroke="#8a3127" stroke-miterlimit="10" stroke-width="1"/>
          <g id="Grupo_1144201" data-name="Grupo 1144201" style="isolation: isolate">
            <g id="Grupo_1144200" data-name="Grupo 1144200">
              <g id="Grupo_1144199" data-name="Grupo 1144199" clip-path="url(#clip-path-27)">
                <text id="Recortar_y_extender." data-name="Recortar y extender." transform="translate(300.076 507.5)" fill="#212429" font-size="16" font-family="Mulish-Regular, Mulish"><tspan x="0" y="0" letter-spacing="-0.01em">R</tspan><tspan y="0">e</tspan><tspan y="0" letter-spacing="-0.009em">c</tspan><tspan y="0">o</tspan><tspan y="0" letter-spacing="0.025em">r</tspan><tspan y="0">tar y </tspan><tspan y="0" letter-spacing="-0.003em">e</tspan><tspan y="0">x</tspan><tspan y="0" letter-spacing="-0.004em">t</tspan><tspan y="0">ende</tspan><tspan y="0" letter-spacing="-0.02em">r</tspan><tspan y="0">.</tspan></text>
                <text id="Ajuste_de_formas." data-name="Ajuste de formas." transform="translate(310.06 526.7)" fill="#212429" font-size="16" font-family="Mulish-Regular, Mulish"><tspan x="0" y="0">Aju</tspan><tspan y="0" letter-spacing="-0.004em">st</tspan><tspan y="0">e de </tspan><tspan y="0" letter-spacing="-0.013em">f</tspan><tspan y="0">orma</tspan><tspan y="0" letter-spacing="-0.004em">s</tspan><tspan y="0">.</tspan></text>
              </g>
            </g>
          </g>
        </g>
      </g>
      <path id="Trazado_980684" data-name="Trazado 980684" d="M269.429,207.5H254.5v303h14.429" fill="none" stroke="#177aae" stroke-width="1"/>
      <line id="Línea_838" data-name="Línea 838" x2="14.429" transform="translate(254.5 409.5)" fill="none" stroke="#177aae" stroke-width="1"/>
      <line id="Línea_839" data-name="Línea 839" x2="14.429" transform="translate(254.5 308.5)" fill="none" stroke="#177aae" stroke-width="1"/>
      <rect id="Rectángulo_405435" data-name="Rectángulo 405435" width="210" height="76" transform="translate(1032.929 270.5)" fill="#fcf4e9"/>
      <g id="Grupo_1144205" data-name="Grupo 1144205">
        <g id="Grupo_1144204" data-name="Grupo 1144204" clip-path="url(#clip-path)">
          <rect id="Rectángulo_405436" data-name="Rectángulo 405436" width="210" height="76" transform="translate(1032.929 270.5)" fill="none" stroke="#8a3127" stroke-miterlimit="10" stroke-width="1"/>
        </g>
      </g>
      <rect id="Rectángulo_405438" data-name="Rectángulo 405438" width="209" height="75" transform="translate(1033.429 271)" fill="#fcf4e9"/>
      <g id="Grupo_1144210" data-name="Grupo 1144210">
        <g id="Grupo_1144209" data-name="Grupo 1144209" clip-path="url(#clip-path)">
          <rect id="Rectángulo_405439" data-name="Rectángulo 405439" width="209" height="75" transform="translate(1033.429 271)" fill="none" stroke="#8a3127" stroke-miterlimit="10" stroke-width="1"/>
          <g id="Grupo_1144208" data-name="Grupo 1144208" style="isolation: isolate">
            <g id="Grupo_1144207" data-name="Grupo 1144207">
              <g id="Grupo_1144206" data-name="Grupo 1144206" clip-path="url(#clip-path-30)">
                <text id="Vista_2D_3D." data-name="Vista 2D/3D." transform="translate(1092.075 302.5)" fill="#212429" font-size="16" font-family="Mulish-Regular, Mulish"><tspan x="0" y="0">Vi</tspan><tspan y="0" letter-spacing="-0.004em">s</tspan><tspan y="0">ta 2</tspan><tspan y="0" letter-spacing="-0.009em">D</tspan><tspan y="0">/3</tspan><tspan y="0" letter-spacing="-0.035em">D</tspan><tspan y="0">.</tspan></text>
                <text id="Perspectivas." transform="translate(1089.723 321.7)" fill="#212429" font-size="16" font-family="Mulish-Regular, Mulish"><tspan x="0" y="0" letter-spacing="-0.021em">P</tspan><tspan y="0">e</tspan><tspan y="0" letter-spacing="-0.004em">r</tspan><tspan y="0">specti</tspan><tspan y="0" letter-spacing="-0.009em">v</tspan><tspan y="0">a</tspan><tspan y="0" letter-spacing="-0.004em">s</tspan><tspan y="0">.</tspan></text>
              </g>
            </g>
          </g>
        </g>
      </g>
      <rect id="Rectángulo_405442" data-name="Rectángulo 405442" width="210" height="76" transform="translate(1032.929 371.5)" fill="#fcf4e9"/>
      <g id="Grupo_1144212" data-name="Grupo 1144212">
        <g id="Grupo_1144211" data-name="Grupo 1144211" clip-path="url(#clip-path)">
          <rect id="Rectángulo_405443" data-name="Rectángulo 405443" width="210" height="76" transform="translate(1032.929 371.5)" fill="none" stroke="#8a3127" stroke-miterlimit="10" stroke-width="1"/>
        </g>
      </g>
      <rect id="Rectángulo_405445" data-name="Rectángulo 405445" width="209" height="75" transform="translate(1033.429 372)" fill="#fcf4e9"/>
      <g id="Grupo_1144217" data-name="Grupo 1144217">
        <g id="Grupo_1144216" data-name="Grupo 1144216" clip-path="url(#clip-path)">
          <rect id="Rectángulo_405446" data-name="Rectángulo 405446" width="209" height="75" transform="translate(1033.429 372)" fill="none" stroke="#8a3127" stroke-miterlimit="10" stroke-width="1"/>
          <g id="Grupo_1144215" data-name="Grupo 1144215" style="isolation: isolate">
            <g id="Grupo_1144214" data-name="Grupo 1144214">
              <g id="Grupo_1144213" data-name="Grupo 1144213" clip-path="url(#clip-path-33)">
                <text id="Renderizado." transform="translate(1090.1 405.5)" fill="#212429" font-size="16" font-family="Mulish-Regular, Mulish"><tspan x="0" y="0" letter-spacing="-0.01em">R</tspan><tspan y="0">enderi</tspan><tspan y="0" letter-spacing="-0.004em">z</tspan><tspan y="0">ad</tspan><tspan y="0" letter-spacing="-0.022em">o</tspan><tspan y="0">.</tspan></text>
                <text id="Vista_realista." data-name="Vista realista." transform="translate(1088.211 424.7)" fill="#212429" font-size="16" font-family="Mulish-Regular, Mulish"><tspan x="0" y="0">Vi</tspan><tspan y="0" letter-spacing="-0.004em">s</tspan><tspan y="0">ta </tspan><tspan y="0" letter-spacing="-0.005em">r</tspan><tspan y="0">eali</tspan><tspan y="0" letter-spacing="-0.004em">s</tspan><tspan y="0">ta.</tspan></text>
              </g>
            </g>
          </g>
        </g>
      </g>
      <rect id="Rectángulo_405449" data-name="Rectángulo 405449" width="210" height="76" transform="translate(1032.928 472.5)" fill="#fcf4e9"/>
      <g id="Grupo_1144219" data-name="Grupo 1144219">
        <g id="Grupo_1144218" data-name="Grupo 1144218" clip-path="url(#clip-path)">
          <rect id="Rectángulo_405450" data-name="Rectángulo 405450" width="210" height="76" transform="translate(1032.929 472.5)" fill="none" stroke="#8a3127" stroke-miterlimit="10" stroke-width="1"/>
        </g>
      </g>
      <rect id="Rectángulo_405452" data-name="Rectángulo 405452" width="209" height="75" transform="translate(1033.429 473)" fill="#fcf4e9"/>
      <g id="Grupo_1144224" data-name="Grupo 1144224">
        <g id="Grupo_1144223" data-name="Grupo 1144223" clip-path="url(#clip-path)">
          <rect id="Rectángulo_405453" data-name="Rectángulo 405453" width="209" height="75" transform="translate(1033.429 473)" fill="none" stroke="#8a3127" stroke-miterlimit="10" stroke-width="1"/>
          <g id="Grupo_1144222" data-name="Grupo 1144222" style="isolation: isolate">
            <g id="Grupo_1144221" data-name="Grupo 1144221">
              <g id="Grupo_1144220" data-name="Grupo 1144220" clip-path="url(#clip-path-36)">
                <text id="Exportar._Guardado" data-name="Exportar. Guardado" transform="translate(1065.676 507.5)" fill="#212429" font-size="16" font-family="Mulish-Regular, Mulish"><tspan x="0" y="0">Expo</tspan><tspan y="0" letter-spacing="0.025em">r</tspan><tspan y="0">ta</tspan><tspan y="0" letter-spacing="-0.02em">r</tspan><tspan y="0">. Gua</tspan><tspan y="0" letter-spacing="-0.005em">r</tspan><tspan y="0">dado</tspan></text>
                <text id="en_formatos_.dwg_.dxf_." data-name="en formatos (.dwg, .dxf)." transform="translate(1049.244 526.7)" fill="#212429" font-size="16" font-family="Mulish-Regular, Mulish"><tspan x="0" y="0">en </tspan><tspan y="0" letter-spacing="-0.014em">f</tspan><tspan y="0">orma</tspan><tspan y="0" letter-spacing="-0.004em">t</tspan><tspan y="0">os (</tspan><tspan y="0" letter-spacing="-0.022em">.</tspan><tspan y="0">d</tspan><tspan y="0" letter-spacing="-0.006em">w</tspan><tspan y="0">g, </tspan><tspan y="0" letter-spacing="-0.022em">.</tspan><tspan y="0">dx</tspan><tspan y="0" letter-spacing="0.05em">f</tspan><tspan y="0">).</tspan></text>
              </g>
            </g>
          </g>
        </g>
      </g>
      <path id="Trazado_980685" data-name="Trazado 980685" d="M1033.429,207.5H1018.5v303h14.429" fill="none" stroke="#177aae" stroke-width="1"/>
      <line id="Línea_840" data-name="Línea 840" x2="14.429" transform="translate(1018.5 409.5)" fill="none" stroke="#177aae" stroke-width="1"/>
      <line id="Línea_841" data-name="Línea 841" x2="14.429" transform="translate(1018.5 308.5)" fill="none" stroke="#177aae" stroke-width="1"/>
      <rect id="Rectángulo_405456" data-name="Rectángulo 405456" width="210" height="76" transform="translate(524.929 270.5)" fill="#fcf4e9"/>
      <rect id="Rectángulo_405457" data-name="Rectángulo 405457" width="210" height="76" transform="translate(524.929 270.5)" fill="none" stroke="#8a3127" stroke-miterlimit="10" stroke-width="1"/>
      <rect id="Rectángulo_405458" data-name="Rectángulo 405458" width="209" height="75" transform="translate(525.429 271)" fill="#fcf4e9"/>
      <rect id="Rectángulo_405459" data-name="Rectángulo 405459" width="209" height="75" transform="translate(525.429 271)" fill="none" stroke="#8a3127" stroke-miterlimit="10" stroke-width="1"/>
      <g id="Grupo_1144229" data-name="Grupo 1144229">
        <g id="Grupo_1144228" data-name="Grupo 1144228" clip-path="url(#clip-path)">
          <g id="Grupo_1144227" data-name="Grupo 1144227" style="isolation: isolate">
            <g id="Grupo_1144226" data-name="Grupo 1144226">
              <g id="Grupo_1144225" data-name="Grupo 1144225" clip-path="url(#clip-path-38)">
                <text id="Capas._Estructuración" data-name="Capas. Estructuración" transform="translate(549.844 302.5)" fill="#212429" font-size="16" font-family="Mulish-Regular, Mulish"><tspan x="0" y="0" letter-spacing="-0.015em">C</tspan><tspan y="0">apa</tspan><tspan y="0" letter-spacing="-0.004em">s</tspan><tspan y="0">. </tspan><tspan y="0" letter-spacing="-0.007em">E</tspan><tspan y="0" letter-spacing="-0.004em">s</tspan><tspan y="0">tructu</tspan><tspan y="0" letter-spacing="-0.004em">r</tspan><tspan y="0">ación</tspan></text>
                <text id="del_diseño." data-name="del diseño." transform="translate(591.396 321.7)" fill="#212429" font-size="16" font-family="Mulish-Regular, Mulish"><tspan x="0" y="0">del diseñ</tspan><tspan y="0" letter-spacing="-0.021em">o</tspan><tspan y="0">.</tspan></text>
              </g>
            </g>
          </g>
        </g>
      </g>
      <rect id="Rectángulo_405462" data-name="Rectángulo 405462" width="210" height="76" transform="translate(524.929 371.5)" fill="#fcf4e9"/>
      <rect id="Rectángulo_405463" data-name="Rectángulo 405463" width="210" height="76" transform="translate(524.929 371.5)" fill="none" stroke="#8a3127" stroke-miterlimit="10" stroke-width="1"/>
      <rect id="Rectángulo_405464" data-name="Rectángulo 405464" width="209" height="75" transform="translate(525.429 372)" fill="#fcf4e9"/>
      <rect id="Rectángulo_405465" data-name="Rectángulo 405465" width="209" height="75" transform="translate(525.429 372)" fill="none" stroke="#8a3127" stroke-miterlimit="10" stroke-width="1"/>
      <g id="Grupo_1144234" data-name="Grupo 1144234">
        <g id="Grupo_1144233" data-name="Grupo 1144233" clip-path="url(#clip-path)">
          <g id="Grupo_1144232" data-name="Grupo 1144232" style="isolation: isolate">
            <g id="Grupo_1144231" data-name="Grupo 1144231">
              <g id="Grupo_1144230" data-name="Grupo 1144230" clip-path="url(#clip-path-40)">
                <text id="Bloques." transform="translate(599.043 405.5)" fill="#212429" font-size="16" font-family="Mulish-Regular, Mulish"><tspan x="0" y="0">Bloque</tspan><tspan y="0" letter-spacing="-0.004em">s</tspan><tspan y="0">.</tspan></text>
                <text id="Elementos_reutilizables." data-name="Elementos reutilizables." transform="translate(544.019 424.7)" fill="#212429" font-size="16" font-family="Mulish-Regular, Mulish"><tspan x="0" y="0">Elemen</tspan><tspan y="0" letter-spacing="-0.004em">t</tspan><tspan y="0">os </tspan><tspan y="0" letter-spacing="-0.005em">r</tspan><tspan y="0">eutili</tspan><tspan y="0" letter-spacing="-0.004em">z</tspan><tspan y="0">able</tspan><tspan y="0" letter-spacing="-0.005em">s</tspan><tspan y="0">.</tspan></text>
              </g>
            </g>
          </g>
        </g>
      </g>
      <path id="Trazado_980686" data-name="Trazado 980686" d="M525.429,207.5H510.5V409h14.429" fill="none" stroke="#177aae" stroke-width="1"/>
      <line id="Línea_842" data-name="Línea 842" x2="14.429" transform="translate(510.5 308.5)" fill="none" stroke="#177aae" stroke-width="1"/>
      <rect id="Rectángulo_405468" data-name="Rectángulo 405468" width="210" height="76" transform="translate(778.929 270.5)" fill="#fcf4e9"/>
      <rect id="Rectángulo_405469" data-name="Rectángulo 405469" width="210" height="76" transform="translate(778.929 270.5)" fill="none" stroke="#8a3127" stroke-miterlimit="10" stroke-width="1"/>
      <rect id="Rectángulo_405470" data-name="Rectángulo 405470" width="209" height="75" transform="translate(779.429 271)" fill="#fcf4e9"/>
      <rect id="Rectángulo_405471" data-name="Rectángulo 405471" width="209" height="75" transform="translate(779.429 271)" fill="none" stroke="#8a3127" stroke-miterlimit="10" stroke-width="1"/>
      <g id="Grupo_1144239" data-name="Grupo 1144239">
        <g id="Grupo_1144238" data-name="Grupo 1144238" clip-path="url(#clip-path)">
          <g id="Grupo_1144237" data-name="Grupo 1144237" style="isolation: isolate">
            <g id="Grupo_1144236" data-name="Grupo 1144236">
              <g id="Grupo_1144235" data-name="Grupo 1144235" clip-path="url(#clip-path-42)">
                <text id="Cotas._Medidas." data-name="Cotas. Medidas." transform="translate(826.044 313.5)" fill="#212429" font-size="16" font-family="Mulish-Regular, Mulish"><tspan x="0" y="0" letter-spacing="-0.034em">C</tspan><tspan y="0" letter-spacing="-0.005em">o</tspan><tspan y="0">ta</tspan><tspan y="0" letter-spacing="-0.004em">s</tspan><tspan y="0">. Medida</tspan><tspan y="0" letter-spacing="-0.004em">s</tspan><tspan y="0">.</tspan></text>
              </g>
            </g>
          </g>
        </g>
      </g>
      <rect id="Rectángulo_405474" data-name="Rectángulo 405474" width="210" height="76" transform="translate(778.929 371.5)" fill="#fcf4e9"/>
      <rect id="Rectángulo_405475" data-name="Rectángulo 405475" width="210" height="76" transform="translate(778.929 371.5)" fill="none" stroke="#8a3127" stroke-miterlimit="10" stroke-width="1"/>
      <rect id="Rectángulo_405476" data-name="Rectángulo 405476" width="209" height="75" transform="translate(779.429 372)" fill="#fcf4e9"/>
      <rect id="Rectángulo_405477" data-name="Rectángulo 405477" width="209" height="75" transform="translate(779.429 372)" fill="none" stroke="#8a3127" stroke-miterlimit="10" stroke-width="1"/>
      <g id="Grupo_1144244" data-name="Grupo 1144244">
        <g id="Grupo_1144243" data-name="Grupo 1144243" clip-path="url(#clip-path)">
          <g id="Grupo_1144242" data-name="Grupo 1144242" style="isolation: isolate">
            <g id="Grupo_1144241" data-name="Grupo 1144241">
              <g id="Grupo_1144240" data-name="Grupo 1144240" clip-path="url(#clip-path-44)">
                <text id="Escalas._Proporciones." data-name="Escalas. Proporciones." transform="translate(802.596 413.5)" fill="#212429" font-size="16" font-family="Mulish-Regular, Mulish"><tspan x="0" y="0" letter-spacing="-0.007em">E</tspan><tspan y="0">s</tspan><tspan y="0" letter-spacing="-0.004em">c</tspan><tspan y="0">ala</tspan><tspan y="0" letter-spacing="-0.004em">s</tspan><tspan y="0">. </tspan><tspan y="0" letter-spacing="-0.009em">P</tspan><tspan y="0" letter-spacing="-0.005em">r</tspan><tspan y="0">opo</tspan><tspan y="0" letter-spacing="-0.005em">r</tspan><tspan y="0">cione</tspan><tspan y="0" letter-spacing="-0.004em">s</tspan><tspan y="0">.</tspan></text>
              </g>
            </g>
          </g>
        </g>
      </g>
      <path id="Trazado_980687" data-name="Trazado 980687" d="M779.429,207.5H764.5V409h14.429" fill="none" stroke="#177aae" stroke-width="1"/>
      <line id="Línea_843" data-name="Línea 843" x2="14.429" transform="translate(764.5 308.5)" fill="none" stroke="#177aae" stroke-width="1"/>
    </g>
  </g>
</svg>
